<?xml version="1.0" encoding="UTF-8"?>
<svg xmlns="http://www.w3.org/2000/svg" xmlns:xlink="http://www.w3.org/1999/xlink" width="32px" height="32px" viewBox="0 0 32 32" version="1.1">
<g id="surface1">
<path style=" stroke:none;fill-rule:nonzero;fill:rgb(88.627452%,47.058824%,10.196079%);fill-opacity:1;" d="M 32 18.449219 L 27.871094 14.160156 L 32 10.601562 Z M 32 18.449219 "/>
<path style=" stroke:none;fill-rule:nonzero;fill:rgb(88.627452%,47.058824%,10.196079%);fill-opacity:1;" d="M 4.136719 14.160156 L 0 18.453125 L 0 10.601562 Z M 4.136719 14.160156 "/>
<path style=" stroke:none;fill-rule:nonzero;fill:rgb(88.627452%,47.058824%,10.196079%);fill-opacity:1;" d="M 32 22.351562 L 32 26.300781 C 32 27.253906 31.226562 28.03125 30.269531 28.03125 L 1.730469 28.03125 C 0.773438 28.03125 0 27.253906 0 26.300781 L 0 22.351562 L 6.183594 15.929688 L 13.25 22.015625 C 13.984375 22.644531 14.960938 22.996094 16 22.996094 C 17.039062 22.996094 18.019531 22.644531 18.753906 22.015625 L 25.816406 15.929688 Z M 32 22.351562 "/>
<path style=" stroke:none;fill-rule:nonzero;fill:rgb(88.627452%,47.058824%,10.196079%);fill-opacity:1;" d="M 32 5.695312 L 32 7.425781 L 16.910156 20.425781 C 16.425781 20.84375 15.574219 20.84375 15.089844 20.425781 L 0 7.425781 L 0 5.695312 C 0 4.738281 0.773438 3.96875 1.730469 3.96875 L 30.269531 3.96875 C 31.226562 3.96875 32 4.738281 32 5.695312 Z M 32 5.695312 "/>
</g>
</svg>
